<?xml version="1.0" encoding="utf-8"?>
<!-- Generator: Adobe Illustrator 26.0.3, SVG Export Plug-In . SVG Version: 6.00 Build 0)  -->
<svg version="1.0" id="katman_1" xmlns="http://www.w3.org/2000/svg" xmlns:xlink="http://www.w3.org/1999/xlink" x="0px" y="0px"
	 viewBox="0 0 600 450" style="enable-background:new 0 0 600 450;" xml:space="preserve">
<style type="text/css">
	.st0{opacity:7.000000e-02;fill:#010202;enable-background:new    ;}
	.st1{fill:#286CB4;}
	.st2{fill:#FFFFFF;}
</style>
<g>
	<path class="st0" d="M459.9,105.6H140.4c-17,0-30,13-30,30v179.7c0,17,14,30,30,30h319.5c17,0,30-13,30-30V135.5
		C489.8,118.5,475.8,105.6,459.9,105.6z"/>
	<path class="st1" d="M459.9,115.6c11,0,20,9,20,20v179.7c0,11-9,20-20,20H140.4c-11,0-20-9-20-20V135.5c0-11,9-20,20-20H459.9"/>
	<path class="st2" d="M200,208.1l7.7,18.7h-15.4L200,208.1z M360.5,208.9h-29.7v8.3H360v12.4h-29.2v9.2h29.7v7.4l20.7-22.4
		l-20.7-23.4L360.5,208.9L360.5,208.9z M220.1,185.5H260l8.9,19.3l8.2-19.4h103.5l10.8,11.9l11.1-11.9H450l-35.1,38.5l34.8,38.2
		h-48.3l-10.8-11.9l-11.2,11.9H210.6l-4.9-11.9h-11.3l-4.9,11.9h-39l32.8-76.7h34.2L220.1,185.5z M306.6,196.3h-22.4l-15,35.3
		L253,196.3h-22.2v48l-20.6-48h-19.9l-23.8,55h15.5l4.9-11.9H213l4.9,11.9h27.2V212l17.5,39.3h11.9l17.4-39.2v39.2h14.6L306.6,196.3
		L306.6,196.3z M399.8,223.9l25.3-27.6h-18.2l-16,17.2l-15.5-17.2h-58.8v55.1h58l16.1-17.4l15.5,17.4h18.7L399.8,223.9L399.8,223.9z
		"/>
</g>
</svg>
