<svg width="831" height="222" viewBox="0 0 831 222" fill="none" xmlns="http://www.w3.org/2000/svg">
<g clip-path="url(#clip0_138_365)">
<path d="M143.6 25C152.667 25 160.533 26.4 167.2 29.2C174 31.8667 179.133 35.6 182.6 40.4C186.2 45.0667 188 50.4667 188 56.6C188 60.0667 187.533 63.2667 186.6 66.2C182.733 79.6667 171.6 88.2 153.2 91.8C159.6 93.6667 164.667 96.8 168.4 101.2C172.133 105.467 174 110.8 174 117.2C174 120.133 173.467 123.6 172.4 127.6C169.467 138 163.533 145.733 154.6 150.8C145.8 155.733 133.267 158.2 117 158.2H33.8C31 158.2 28.8667 157.733 27.4 156.8C25.8 155.867 25 154.6 25 153C25 152.2 25.2 151.333 25.6 150.4C26.1333 148.933 27 147.8 28.2 147C29.4 146.2 30.1333 145.733 30.4 145.6C32.5333 144.267 34.2667 142.933 35.6 141.6C36.9333 140.133 38.0667 137.8 39 134.6L63.4 48.4C63.9333 46.6667 64.2 45 64.2 43.4C64.2 41.9333 63.9333 40.7333 63.4 39.8C63 38.7333 62.4 37.5333 61.6 36.2C60.4 34.4667 59.8 33.0667 59.8 32C59.8 31.6 59.9333 30.8667 60.2 29.8C60.7333 28.0667 61.8667 26.8667 63.6 26.2C65.4667 25.4 68.2667 25 72 25H143.6ZM134.6 61.6C135.533 58.6667 136 55.9333 136 53.4C136 46.4667 132.067 43 124.2 43H115.2L104.6 80.4H113.4C119 80.4 123.4 79.0667 126.6 76.4C129.933 73.6 132.6 68.6667 134.6 61.6ZM120 120.4C120.933 117.2 121.4 114.267 121.4 111.6C121.4 104.4 117.267 100.8 109 100.8H99L87.6 140.2H97.8C103.533 140.2 108.133 138.8 111.6 136C115.067 133.067 117.867 127.867 120 120.4ZM259.748 52.4C277.882 52.4 291.215 56.0667 299.748 63.4C308.415 70.7333 312.748 80.3333 312.748 92.2C312.748 96.2 312.215 100.667 311.148 105.6C308.615 116.533 303.882 126.133 296.948 134.4C290.015 142.533 281.482 148.867 271.348 153.4C261.348 157.8 250.482 160 238.748 160C220.215 160 206.482 156.333 197.548 149C188.748 141.533 184.348 131.667 184.348 119.4C184.348 115.267 184.882 110.667 185.948 105.6C188.482 95.2 193.282 86 200.348 78C207.548 69.8667 216.282 63.6 226.548 59.2C236.948 54.6667 248.015 52.4 259.748 52.4ZM259.148 70.2C256.348 70.2 253.348 72.7333 250.148 77.8C247.082 82.7333 243.415 92.1333 239.148 106C234.882 119.867 232.748 129.6 232.748 135.2C232.748 138.133 233.215 140.133 234.148 141.2C235.082 142.133 236.348 142.6 237.948 142.6C240.748 142.867 243.615 140.467 246.548 135.4C249.615 130.333 253.415 120.467 257.948 105.8C262.082 92.8667 264.148 83.4667 264.148 77.6C264.148 74.8 263.682 72.8667 262.748 71.8C261.948 70.7333 260.748 70.2 259.148 70.2ZM432.398 130.6C432.132 131.667 431.998 132.467 431.998 133C431.998 133.933 432.198 134.667 432.598 135.2C433.132 135.733 433.798 136 434.598 136C436.198 136 437.532 135.333 438.598 134C439.798 132.533 440.598 131.8 440.998 131.8C441.665 131.8 442.198 132.267 442.598 133.2C443.132 134 443.398 135 443.398 136.2C443.532 139.933 442.198 143.667 439.398 147.4C436.598 151 432.665 154 427.598 156.4C422.532 158.8 416.865 160 410.598 160C402.732 160 396.465 158.4 391.798 155.2C387.132 152 384.132 147.8 382.798 142.6C377.998 147.933 372.665 152 366.798 154.8C361.065 157.467 355.198 158.8 349.198 158.8C339.865 158.8 331.998 156.533 325.598 152C319.332 147.333 316.198 140.867 316.198 132.6C316.198 128.867 316.865 125 318.198 121L330.998 79.2C331.398 78 331.598 77 331.598 76.2C331.598 74.7333 331.265 73.6 330.598 72.8C329.932 71.8667 328.932 70.9333 327.598 70C326.265 68.9333 325.332 68 324.798 67.2C324.265 66.4 324.198 65.3333 324.598 64C325.398 60.9333 329.598 58.2667 337.198 56C344.798 53.6 352.732 52.4 360.998 52.4C368.732 52.4 374.398 53.8667 377.998 56.8C381.598 59.7333 383.398 63.7333 383.398 68.8C383.398 71.8667 382.932 74.8 381.998 77.6L369.398 119.2C368.865 120.667 368.598 122.067 368.598 123.4C368.598 125.267 369.132 126.667 370.198 127.6C371.265 128.533 372.665 129 374.398 129C376.932 129 378.998 128.267 380.598 126.8C382.198 125.333 383.798 122.867 385.398 119.4L397.598 79.2C397.998 78 398.198 77 398.198 76.2C398.198 74.7333 397.865 73.6 397.198 72.8C396.532 71.8667 395.598 70.9333 394.398 70C393.065 68.9333 392.132 68 391.598 67.2C391.065 66.4 390.998 65.3333 391.398 64C392.065 60.9333 396.198 58.2667 403.798 56C411.398 53.6 419.332 52.4 427.598 52.4C435.332 52.4 440.998 53.8667 444.598 56.8C448.332 59.7333 450.198 63.6667 450.198 68.6C450.198 71.1333 449.665 74.1333 448.598 77.6L432.398 130.6ZM574.508 130.6C574.241 131.133 574.108 131.933 574.108 133C574.108 133.933 574.308 134.667 574.708 135.2C575.241 135.733 575.908 136 576.708 136C578.308 136 579.641 135.333 580.708 134C581.908 132.533 582.708 131.8 583.108 131.8C583.774 131.8 584.308 132.267 584.708 133.2C585.108 134 585.308 135 585.308 136.2C585.441 140.067 584.174 143.867 581.508 147.6C578.841 151.2 574.908 154.2 569.708 156.6C564.641 158.867 558.508 160 551.308 160C542.508 160 535.508 158 530.308 154C525.108 149.867 522.441 144.4 522.308 137.6C522.308 132.667 523.508 127.133 525.908 121L536.908 92.2C537.574 90.4667 537.908 89.0667 537.908 88C537.908 86.2667 537.308 84.9333 536.108 84C535.041 82.9333 533.708 82.4 532.108 82.4C529.174 82.4 526.374 83.8 523.708 86.6C521.041 89.2667 519.108 92.6 517.908 96.6L505.508 137.4C504.974 138.867 504.708 140.267 504.708 141.6C504.708 143.2 505.041 144.533 505.708 145.6C506.374 146.533 507.308 147.533 508.508 148.6C509.441 149.4 510.108 150.133 510.508 150.8C510.908 151.467 510.974 152.267 510.708 153.2C510.174 154.933 508.908 156.2 506.908 157C504.908 157.8 501.774 158.2 497.508 158.2H451.908C448.441 158.2 445.974 157.667 444.508 156.6C442.908 155.4 442.308 153.867 442.708 152C443.241 150.4 444.641 149 446.908 147.8C448.908 146.733 450.574 145.467 451.908 144C453.241 142.533 454.374 140.2 455.308 137L473.108 79.2C473.374 78.5333 473.508 77.6 473.508 76.4C473.508 74.9333 473.174 73.8 472.508 73C471.974 72.2 471.041 71.2 469.708 70C468.374 68.9333 467.441 68 466.908 67.2C466.374 66.4 466.308 65.3333 466.708 64C467.508 60.9333 471.708 58.2667 479.308 56C486.908 53.6 494.841 52.4 503.108 52.4C509.774 52.4 515.041 54.2667 518.908 58C522.774 61.6 524.508 66.6667 524.108 73.2C529.574 65.3333 535.374 59.9333 541.508 57C547.641 53.9333 554.308 52.4 561.508 52.4C569.641 52.4 576.174 54.8667 581.108 59.8C586.174 64.7333 588.708 71.1333 588.708 79C588.708 83.1333 588.041 87.2 586.708 91.2L574.508 130.6ZM683.272 55C685.805 55 687.739 55.5333 689.072 56.6C690.539 57.6667 691.272 59.1333 691.272 61C691.272 61.5333 691.139 62.4667 690.872 63.8C689.139 69.6667 685.139 72.6 678.872 72.6H667.272L652.272 122C651.605 124 651.272 126.067 651.272 128.2C651.272 130.6 651.939 132.267 653.272 133.2C654.605 134.133 656.472 134.6 658.872 134.6C661.005 134.6 663.672 134.333 666.872 133.8C668.472 133.4 669.872 133.2 671.072 133.2C672.005 133.2 672.672 133.533 673.072 134.2C673.605 134.733 673.872 135.467 673.872 136.4C674.005 139.067 672.005 142.333 667.872 146.2C663.872 149.933 658.405 153.2 651.472 156C644.539 158.667 636.872 160 628.472 160C619.405 160 612.139 157.933 606.672 153.8C601.205 149.667 598.472 144 598.472 136.8C598.472 133.467 599.005 130.267 600.072 127.2L612.872 87.6C613.539 85.3333 613.872 83.5333 613.872 82.2C613.872 79.5333 613.205 77.2667 611.872 75.4C610.672 73.5333 608.939 71.6 606.672 69.6C604.672 67.7333 603.272 66.2 602.472 65C601.672 63.6667 601.472 62.1333 601.872 60.4C602.405 58.6667 603.539 57.3333 605.272 56.4C607.005 55.4667 609.739 55 613.472 55H624.672L637.272 42.4C641.672 38 645.672 34.9333 649.272 33.2C653.005 31.4667 657.805 30.6 663.672 30.6C672.072 30.6 676.272 33.8 676.272 40.2C676.272 42.2 676.005 44.0667 675.472 45.8L672.672 55H683.272ZM785.809 52.4C791.676 52.4 796.343 54.8 799.809 59.6C803.409 64.2667 805.209 70.6667 805.209 78.8C805.209 85.8667 803.943 93.4667 801.409 101.6C796.476 118 788.543 133.467 777.609 148C766.809 162.533 754.343 174.2 740.209 183C726.209 191.8 712.209 196.2 698.209 196.2C691.276 196.2 685.276 195 680.209 192.6C675.276 190.2 671.543 187 669.009 183C666.343 179 665.009 174.733 665.009 170.2C665.009 168.2 665.343 166 666.009 163.6C667.209 159.867 669.209 157 672.009 155C674.809 153 678.143 152 682.009 152C688.143 152 693.143 154.067 697.009 158.2C701.009 162.467 703.543 168.267 704.609 175.6C713.143 175.2 721.009 171.533 728.209 164.6C721.409 163.4 716.343 161.133 713.009 157.8C709.809 154.333 707.609 149 706.409 141.8L698.409 92.8C698.009 90.2667 697.409 88.5333 696.609 87.6C695.943 86.5333 695.009 86 693.809 86C692.876 86 691.743 86.4667 690.409 87.4C689.209 88.3333 688.343 88.8 687.809 88.8C686.743 88.8 686.209 87.6667 686.209 85.4C686.209 83.5333 686.543 81.5333 687.209 79.4C689.609 71.8 694.076 65.4 700.609 60.2C707.143 54.8667 714.743 52.2 723.409 52.2C731.943 52.2 738.209 54.7333 742.209 59.8C746.343 64.8667 749.009 72.6667 750.209 83.2L756.209 127.2C756.609 130.533 757.809 132.2 759.809 132.2C762.209 132.2 765.009 130.067 768.209 125.8C771.409 121.4 774.543 115.2 777.609 107.2C773.609 103.6 770.543 99.4667 768.409 94.8C766.276 90.1333 765.209 85.1333 765.209 79.8C765.209 75.6667 765.743 71.9333 766.809 68.6C768.409 63.2667 770.876 59.2667 774.209 56.6C777.676 53.8 781.543 52.4 785.809 52.4Z" fill="#4338CA"/>
</g>
<defs>
<clipPath id="clip0_138_365">
<rect width="831" height="222" fill="white"/>
</clipPath>
</defs>
</svg>
