<?xml version="1.0" encoding="utf-8"?>
<!-- Generator: Adobe Illustrator 26.0.3, SVG Export Plug-In . SVG Version: 6.00 Build 0)  -->
<svg version="1.0" id="katman_1" xmlns="http://www.w3.org/2000/svg" xmlns:xlink="http://www.w3.org/1999/xlink" x="0px" y="0px"
	 viewBox="0 0 600 450" style="enable-background:new 0 0 600 450;" xml:space="preserve">
<style type="text/css">
	.st0{fill-rule:evenodd;clip-rule:evenodd;fill:#EB611C;}
	.st1{fill-rule:evenodd;clip-rule:evenodd;fill:#E41221;}
	.st2{fill-rule:evenodd;clip-rule:evenodd;fill:#F59E1E;}
</style>
<g id="Components---Sprint-3">
	<g id="assets-_x2F_-logo-_x2F_-mastercard-_x2F_-symbol">
		<polygon id="Fill-1" class="st0" points="240.3,333.3 359.9,333.3 359.9,117.4 240.3,117.4 		"/>
		<path id="Fill-2" class="st1" d="M247.9,225.4c0-43.8,20.4-82.8,52.2-107.9c-23.3-18.4-52.6-29.4-84.5-29.4
			C140.2,88.1,79,149.5,79,225.4s61.2,137.3,136.7,137.3c31.9,0,61.2-11,84.5-29.4C268.3,308.2,247.9,269.2,247.9,225.4"/>
		<path id="Fill-4" class="st2" d="M517,310.4v-5.3h-1.4l-1.6,3.7l-1.6-3.7H511v5.3h1v-4l1.5,3.5h1l1.5-3.5v4H517z M508.2,310.4V306
			h1.8v-0.9h-4.5v0.9h1.8v4.4H508.2z M521.3,225.4c0,75.8-61.2,137.3-136.7,137.3c-31.9,0-61.2-11-84.5-29.4
			c31.8-25.1,52.2-64.1,52.2-107.9c0-43.8-20.4-82.8-52.2-107.9c23.2-18.4,52.6-29.4,84.5-29.4C460.1,88.1,521.3,149.5,521.3,225.4
			L521.3,225.4z"/>
	</g>
</g>
</svg>
